<svg width="225" height="225" viewBox="0 0 225 225" fill="none" xmlns="http://www.w3.org/2000/svg">
<g opacity="0.4" filter="url(#filter0_f_1411_5018)">
<path d="M135.545 99.6098C135.545 141.048 102.593 174.641 61.9434 174.641C21.2944 174.641 -11.6582 141.048 -11.6582 99.6097C-11.6582 58.1714 21.2944 24.579 61.9435 24.579C102.593 24.579 135.545 58.1714 135.545 99.6098Z" fill="url(#paint0_linear_1411_5018)" fill-opacity="0.7"/>
<path d="M217.007 105.684C217.007 154.423 178.136 193.934 130.186 193.934C82.2356 193.934 43.3644 154.423 43.3644 105.684C43.3644 56.9442 82.2356 17.4331 130.186 17.4331C178.136 17.4331 217.007 56.9442 217.007 105.684Z" fill="#D8FF95" fill-opacity="0.7"/>
</g>
<defs>
<filter id="filter0_f_1411_5018" x="-80.4355" y="-51.3442" width="366.22" height="314.056" filterUnits="userSpaceOnUse" color-interpolation-filters="sRGB">
<feFlood flood-opacity="0" result="BackgroundImageFix"/>
<feBlend mode="normal" in="SourceGraphic" in2="BackgroundImageFix" result="shape"/>
<feGaussianBlur stdDeviation="34.3886" result="effect1_foregroundBlur_1411_5018"/>
</filter>
<linearGradient id="paint0_linear_1411_5018" x1="102.674" y1="17.4331" x2="102.674" y2="193.934" gradientUnits="userSpaceOnUse">
<stop stop-color="#38ED82"/>
<stop offset="1" stop-color="#5AFF9E"/>
</linearGradient>
</defs>
</svg>
